# xmcd CD database file
#
# Track frame offsets:
#	150
#	36879
#	51291
#	70540
#	91370
#	110163
#	134086
#	156449
#	178651
#	191925
#	211688
#	227107
#	248671
#	260676
#	275103
#	291319
#	306813
#	323284
#	335549
#
# Disc length: 4780 seconds
#
# Revision: 0
# Processed by: cddbd v1.5.1PL0 Copyright (c) Steve Scherf et al.
# Submitted via: CDex 1.50
#
DISCID=2712aa13
DTITLE=Stanis³aw Soyka - Archibald
DYEAR=2005
DGENRE=Jazz
TTITLE0=Cud  niepamieci
TTITLE1=Sa na tym swiecie rzeczy..
TTITLE2=Zycie to krotki sen
TTITLE3=Play it again
TTITLE4=Tolerancja
TTITLE5=Czas nas uczy pogody
TTITLE6=Sonet 33
TTITLE7=Sonet 44
TTITLE8=Sonet 46
TTITLE9=Sonet 56
TTITLE10=Sonet 66**
TTITLE11=Sonet 75
TTITLE12=Sonet 77
TTITLE13=Sonet 116
TTITLE14=Sonet 115
TTITLE15=Sonet 135
TTITLE16=Sonet 153
TTITLE17=Sonet 153**
TTITLE18=Sonet 102
EXTD=YEAR: 2005
EXTT0=
EXTT1=
EXTT2=
EXTT3=
EXTT4=
EXTT5=
EXTT6=
EXTT7=
EXTT8=
EXTT9=
EXTT10=
EXTT11=
EXTT12=
EXTT13=
EXTT14=
EXTT15=
EXTT16=
EXTT17=
EXTT18=
PLAYORDER=
